<?xml version="1.0" standalone="no"?>
<!DOCTYPE svg PUBLIC "-//W3C//DTD SVG 20010904//EN"
 "http://www.w3.org/TR/2001/REC-SVG-20010904/DTD/svg10.dtd">
<svg version="1.0" xmlns="http://www.w3.org/2000/svg"
 width="512.000000pt" height="512.000000pt" viewBox="0 0 512.000000 512.000000"
 preserveAspectRatio="xMidYMid meet">
<metadata>
Created by potrace 1.11, written by Peter Selinger 2001-2013
</metadata>
<g transform="translate(0.000000,512.000000) scale(0.100000,-0.100000)"
fill="#000000" stroke="none">
<path d="M1672 4759 c-66 -12 -133 -47 -287 -148 -114 -75 -318 -201 -472
-292 -57 -33 -364 -209 -408 -233 -472 -260 -542 -309 -473 -335 21 -8 151 -6
208 4 14 2 48 7 75 10 125 16 176 34 274 99 79 52 164 114 226 164 6 4 44 34
85 67 41 32 136 110 212 172 75 62 138 113 141 113 3 0 11 -24 17 -52 28 -120
114 -274 186 -338 67 -58 175 -98 302 -109 7 -1 12 -15 12 -34 0 -98 77 -205
188 -259 37 -18 69 -33 72 -34 3 0 23 -5 45 -12 84 -23 284 -41 286 -26 5 28
4 357 -1 363 -3 4 -36 12 -75 19 -198 32 -348 91 -390 155 -25 39 -6 69 68
111 177 98 241 241 173 380 -28 56 -89 123 -145 157 -83 51 -220 75 -319 58z"/>
<path d="M3275 4755 c-156 -34 -278 -136 -311 -264 -31 -122 31 -230 184 -321
104 -61 113 -98 39 -153 -62 -48 -171 -86 -312 -112 -49 -9 -97 -20 -105 -24
-12 -7 -15 -38 -15 -187 l0 -179 94 2 c288 6 489 138 503 331 1 17 7 32 13 33
69 4 139 22 212 55 118 51 230 213 272 392 7 28 15 52 18 52 2 0 41 -31 86
-68 228 -190 477 -383 592 -458 83 -54 117 -66 225 -83 287 -44 392 -32 318
36 -21 19 -184 123 -193 123 -2 0 -50 26 -107 59 -105 59 -454 258 -518 294
-107 60 -404 242 -528 324 -79 51 -160 102 -180 112 -86 44 -189 56 -287 36z"/>
<path d="M2515 4423 c-32 -8 -84 -51 -102 -86 -20 -40 -20 -114 1 -156 9 -17
34 -43 56 -57 132 -88 296 41 245 191 -30 86 -111 130 -200 108z"/>
<path d="M1230 4238 c-14 -11 -38 -32 -55 -47 -116 -103 -380 -293 -475 -341
-25 -13 -72 -42 -105 -65 -74 -53 -131 -85 -150 -85 -18 0 -45 -38 -38 -56 11
-29 126 -37 214 -14 148 38 348 163 601 373 l106 88 -29 64 c-16 36 -29 71
-29 79 0 24 -14 25 -40 4z"/>
<path d="M3832 4182 c-18 -43 -32 -83 -32 -88 0 -13 184 -166 295 -246 211
-151 378 -230 489 -231 69 -1 123 11 129 27 8 19 -20 56 -42 56 -10 0 -65 31
-122 68 -57 37 -144 92 -194 122 -124 74 -319 220 -459 344 -16 14 -30 26 -31
26 0 0 -15 -35 -33 -78z"/>
<path d="M1326 3951 c-152 -132 -282 -220 -438 -297 -93 -45 -148 -84 -148
-104 0 -18 45 -33 100 -33 121 0 320 112 556 312 l87 74 -36 18 c-19 10 -44
30 -55 44 l-20 25 -46 -39z"/>
<path d="M2459 3978 c-1 -7 -1 -22 -1 -33 0 -11 3 -137 7 -280 4 -143 8 -305
10 -360 3 -78 15 -571 17 -670 1 -11 0 -25 -1 -32 0 -7 -36 3 -93 29 -144 64
-249 126 -294 176 -31 33 -39 87 -19 119 17 25 20 25 89 18 162 -16 206 -4
249 65 17 27 22 50 22 106 0 96 -27 134 -114 158 -55 15 -179 22 -226 12 -114
-24 -177 -57 -235 -123 -64 -73 -84 -138 -85 -269 0 -106 1 -113 34 -178 58
-114 159 -190 356 -271 58 -24 108 -45 110 -47 2 -2 -10 -19 -26 -38 -66 -76
-84 -166 -49 -247 16 -35 59 -102 80 -123 3 -3 30 -34 60 -70 30 -36 68 -77
83 -91 l29 -27 -36 -53 c-51 -77 -75 -155 -72 -231 3 -75 28 -130 92 -198 24
-26 44 -51 44 -55 0 -4 -21 -28 -46 -54 -142 -140 -181 -252 -123 -347 18 -30
93 -105 181 -179 l46 -40 -39 -64 c-26 -43 -39 -77 -39 -99 0 -38 12 -36 17 3
4 26 53 119 60 112 2 -3 4 -39 4 -81 0 -42 3 -76 7 -76 4 0 7 36 7 81 0 44 2
85 6 91 8 12 53 -46 66 -87 6 -17 9 -43 7 -59 -2 -19 0 -26 7 -19 21 21 12 91
-19 146 l-30 53 61 54 c33 30 85 80 114 110 87 89 99 173 38 269 -25 41 -46
66 -133 158 -31 34 -32 35 -13 51 84 75 130 186 116 281 -4 25 -6 47 -6 49 3
6 -60 120 -83 151 l-25 34 56 58 c71 73 170 203 190 248 27 62 27 126 0 184
-14 29 -37 64 -51 80 -25 25 -25 28 -9 34 57 21 218 95 242 113 16 11 32 20
35 20 28 0 141 122 171 186 52 108 42 295 -21 396 -88 140 -271 200 -481 157
-91 -18 -133 -71 -133 -167 0 -137 96 -203 240 -167 25 6 51 10 58 9 6 -1 21
-2 31 -3 35 -2 53 -30 47 -72 -7 -52 -19 -68 -85 -117 -54 -40 -305 -172 -328
-172 -7 0 -10 24 -8 68 2 37 7 180 10 317 4 138 8 295 10 350 1 55 6 222 10
370 4 149 7 275 8 280 1 6 -39 11 -100 13 -78 2 -103 0 -104 -10z m259 -1755
l33 -25 -27 -46 c-25 -44 -115 -172 -120 -172 -2 0 -1 9 1 21 2 12 5 76 6 143
0 66 3 124 6 128 5 10 56 -15 101 -49z m-210 -90 l4 -138 -21 27 c-47 59 -109
161 -105 172 4 11 102 76 114 76 3 0 7 -62 8 -137z m142 -557 c20 -52 12 -109
-21 -159 -17 -26 -33 -47 -35 -47 -4 0 1 263 5 279 2 8 41 -48 51 -73z m-123
-61 c1 -62 -2 -103 -8 -99 -20 12 -42 71 -41 107 2 38 26 97 40 97 4 0 8 -47
9 -105z m150 -400 c72 -65 102 -109 108 -158 4 -30 -2 -45 -39 -94 -23 -32
-73 -89 -110 -128 l-67 -70 7 235 c4 129 6 248 5 263 -1 24 1 27 16 18 10 -5
46 -35 80 -66z m-140 -61 c1 -54 4 -157 6 -229 l4 -129 -78 84 c-77 82 -109
131 -109 164 0 37 33 90 92 151 35 35 68 63 73 61 6 -1 11 -46 12 -102z"/>
<path d="M3727 3964 c-10 -13 -34 -32 -53 -42 l-36 -18 62 -55 c155 -136 333
-255 455 -304 112 -44 240 -35 220 16 -8 20 -55 50 -165 105 -125 62 -202 112
-335 219 -61 48 -114 91 -120 95 -6 5 -18 -3 -28 -16z"/>
<path d="M1525 3805 c-96 -85 -232 -179 -332 -229 -105 -54 -153 -87 -153
-107 0 -17 43 -27 100 -24 101 6 296 123 491 295 l62 54 -43 18 c-73 31 -82
31 -125 -7z"/>
<path d="M3481 3817 l-54 -21 54 -49 c102 -92 264 -208 354 -253 94 -47 173
-62 223 -43 49 19 17 49 -136 126 -94 48 -263 166 -337 235 -35 33 -34 33
-104 5z"/>
</g>
</svg>
